<svg xmlns="http://www.w3.org/2000/svg" style="display:none;">
    <symbol id="icono-libro" viewBox="0 0 24 24" fill="none" stroke="currentColor"
        stroke-width="2.5">
        <path stroke-linecap="round" stroke-linejoin="round"
            d="M12 6.042A8.967 8.967 0 0 0 6 3.75c-1.052 0-2.062.18-3 .512v14.25A8.987 8.987 0 0 1 6 18c2.305 0 4.408.867 6 2.292m0-14.25a8.966 8.966 0 0 1 6-2.292c1.052 0 2.062.18 3 .512v14.25A8.987 8.987 0 0 0 18 18a8.967 8.967 0 0 0-6 2.292m0-14.25v14.25" />
    </symbol>

    <symbol id="icono-telefono" viewBox="0 0 24 24" fill="none" stroke="currentColor"
        stroke-width="2.5">
        <path stroke-linecap="round" stroke-linejoin="round"
            d="M2.25 6.75c0 8.284 6.716 15 15 15h2.25a2.25 2.25 0 0 0 2.25-2.25v-1.372c0-.516-.351-.966-.852-1.091l-4.423-1.106c-.44-.11-.902.055-1.173.417l-.97 1.293c-.282.376-.769.542-1.21.38a12.035 12.035 0 0 1-7.143-7.143c-.162-.441.004-.928.38-1.21l1.293-.97c.363-.271.527-.734.417-1.173L6.963 3.102a1.125 1.125 0 0 0-1.091-.852H4.5A2.25 2.25 0 0 0 2.25 4.5v2.25Z" />
    </symbol>
</svg>